<?xml version="1.0" encoding="utf-8"?>
<!-- Generator: Adobe Illustrator 24.1.2, SVG Export Plug-In . SVG Version: 6.00 Build 0)  -->
<svg version="1.1" id="Layer_1" xmlns="http://www.w3.org/2000/svg" xmlns:xlink="http://www.w3.org/1999/xlink" x="0px" y="0px"
	 viewBox="0 0 1920 1200" style="enable-background:new 0 0 1920 1200;" xml:space="preserve">
<style type="text/css">
	.st0{fill:#E8E9EB;}
	.st1{fill:#D2D2D3;}
	.st2{fill:#363D44;}
	.st3{fill:#C33D54;}
	.st4{fill:#FFFFFF;}
</style>
<polygon class="st0" points="1920,348.2 1920,1200 1456.2,1200 694,644.3 "/>
<g>
	<g>
		<path class="st1" d="M1915.2,1049l1,128.2c0,10.4-9.4,19.8-19.8,19.8h-111.5c-10.4,0-19.8-9.4-19.8-19.8V1050h-305.4
			c-11.5,0-19.8-9.4-19.8-19.8V919.7L1803.6,483c3.1-3.1,6.3-6.3,15.6-6.3h75.1c10.4,0,19.8,8.3,19.8,19.8l1,427.4V1049V923.9
			 M1769.2,920.8h-165.7l165.7-193.9V920.8z"/>
	</g>
</g>
<polygon class="st0" points="868.3,0 343.1,388.5 0,138.4 0,0 "/>
<polygon class="st0" points="1920,0 1920,332.6 677.9,632.6 355.9,397.8 893.8,0 "/>
<polygon class="st2" points="1430.5,1200 0,1200 0,812 674.7,649 "/>
<polygon class="st3" points="658.6,637.3 0,796.4 0,661.1 343.2,407.3 "/>
<polygon class="st0" points="330.3,397.9 0,642.3 0,157.1 "/>
<polygon class="st4" points="1456.2,1200 1430.5,1200 674.7,649 658.6,637.3 343.2,407.3 330.3,397.9 0,157.1 0,138.4 343.1,388.5 
	355.9,397.9 677.9,632.6 694,644.3 "/>
<polygon class="st4" points="0,796.4 658.6,637.3 678,632.6 1920,332.6 1920,348.2 694,644.3 674.7,649 0,812 "/>
<polygon class="st4" points="893.8,0 355.9,397.9 343.2,407.3 0,661.1 0,642.3 330.3,397.9 343.1,388.5 868.3,0 "/>
<g>
	<path class="st3" d="M955.4,139.7c31.3,0,56.3,25.2,56.3,56.4s-25,56.1-56.3,56.1c-31.3,0-56.1-24.8-56.1-56.1
		S924.1,139.7,955.4,139.7z M955.4,227.2c17.2,0,31.3-14.1,31.3-31.1c0-17.2-14.1-31.4-31.3-31.4c-17,0-31.1,14.2-31.1,31.4
		C924.3,213.1,938.4,227.2,955.4,227.2z"/>
	<path class="st3" d="M1030.6,144.2c0-1.6,1.3-3,3-3h46.7c18.8,0,34.1,15.2,34.1,33.8c0,14.4-9.5,25.9-23.1,31.4l21.4,39.7
		c1.1,2,0,4.5-2.7,4.5h-20.8c-1.3,0-2.2-0.8-2.5-1.4l-20.8-41.4h-10.8v39.9c0,1.6-1.4,3-3,3h-18.6c-1.7,0-3-1.4-3-3V144.2z
		 M1078.2,188c6.4,0,11.9-5.9,11.9-12.5s-5.5-11.9-11.9-11.9h-23.1V188H1078.2z"/>
	<path class="st3" d="M1135.3,144.2c0-1.6,1.3-3,2.8-3h38.1c30.2,0,54.9,24.5,54.9,54.5c0,30.3-24.7,54.9-54.9,54.9h-38.1
		c-1.6,0-2.8-1.4-2.8-3V144.2z M1174.6,227.5c17.7,0,30.5-13.9,30.5-31.7c0-17.7-12.8-31.6-30.5-31.6h-15v63.3H1174.6z"/>
	<path class="st3" d="M1250.1,144.2c0-1.6,1.4-3,3-3h18.8c1.6,0,3,1.4,3,3v103.5c0,1.6-1.4,3-3,3h-18.8c-1.6,0-3-1.4-3-3V144.2z"/>
	<path class="st3" d="M1301.5,142.5c0-1.6,1.4-2.8,3-2.8h3.9l62.4,60h0.2v-55.5c0-1.6,1.3-3,3-3h18.8c1.6,0,3,1.4,3,3v105.2
		c0,1.6-1.4,2.8-3,2.8h-2.5c-0.5,0-1.7-0.5-2-0.8l-61.7-62h-0.2v58.3c0,1.6-1.3,3-3,3h-18.6c-1.6,0-3-1.4-3-3L1301.5,142.5z"/>
	<path class="st3" d="M1408.4,246.6l48.9-105.2c0.5-0.9,1.6-1.7,2.7-1.7h1.6c1.1,0,2.2,0.8,2.7,1.7l48.9,105.2
		c0.9,2-0.3,4.1-2.7,4.1h-17.3c-2.8,0-4.1-0.9-5.5-3.9l-5.6-12.3h-42.5l-5.6,12.5c-0.8,1.9-2.5,3.8-5.6,3.8h-17.2
		C1408.8,250.6,1407.5,248.6,1408.4,246.6z M1472.7,213.1l-11.9-25.8h-0.2l-11.7,25.8H1472.7z"/>
	<path class="st3" d="M1573.5,139.7c15.6,0,27.2,4.8,37.8,14.5c1.4,1.3,1.4,3.1,0.2,4.4l-12.2,12.7c-1.1,1.1-2.8,1.1-3.9,0
		c-5.8-5.2-13.4-8-21.1-8c-17.7,0-30.6,14.7-30.6,32.2c0,17.3,13.1,31.7,30.8,31.7c7.3,0,15.3-2.7,20.9-7.5c1.1-0.9,3.1-0.9,4.1,0.2
		l12.2,13c1.1,1.1,0.9,3.1-0.2,4.2c-10.6,10.3-24.1,15.2-38,15.2c-31.3,0-56.4-24.8-56.4-56.1S1542.2,139.7,1573.5,139.7z"/>
	<path class="st3" d="M1630.2,144.2c0-1.6,1.4-3,3-3h18.8c1.6,0,3,1.4,3,3v103.5c0,1.6-1.4,3-3,3h-18.8c-1.6,0-3-1.4-3-3V144.2z"/>
	<path class="st3" d="M1666.5,236.9l10.6-10.5c1.3-1.1,3-1.3,4.2,0c1.9,1.9,3.8,3.3,8,3.3c4.4,0,9.2-4.1,9.2-11.9v-73.6
		c0-1.6,1.3-3,3-3h19.1c1.7,0,3,1.4,3,3V218c0,21.7-15.3,34.2-33.6,34.2c-13.6,0-21.1-8.1-23.8-11.4
		C1665.4,239.5,1665.5,238,1666.5,236.9z"/>
	<path class="st3" d="M1734,246.6l48.9-105.2c0.5-0.9,1.6-1.7,2.7-1.7h1.6c1.1,0,2.2,0.8,2.7,1.7l48.9,105.2c0.9,2-0.3,4.1-2.7,4.1
		h-17.3c-2.8,0-4.1-0.9-5.5-3.9l-5.6-12.3h-42.5l-5.6,12.5c-0.8,1.9-2.5,3.8-5.6,3.8h-17.2C1734.3,250.6,1733,248.6,1734,246.6z
		 M1798.2,213.1l-11.9-25.8h-0.2l-11.7,25.8H1798.2z"/>
</g>
<g>
	<path class="st2" d="M1506.4,983v-68.9l226.8-272.3c1.9-1.9,3.9-3.9,9.7-3.9h46.8c6.5,0,12.3,5.2,12.3,12.3l0.7,266.5h51.3
		c7.1,0,12.3,5.2,12.3,11.7v53.9c0,6.5-5.2,12.4-12.3,12.4h-51.3l0.7,79.9c0,6.5-5.9,12.3-12.4,12.3h-69.5
		c-6.5,0-12.3-5.8-12.3-12.3v-79.3h-190.4C1511.6,995.4,1506.4,989.5,1506.4,983z M1711.8,914.8V793.9l-103.3,120.9H1711.8z"/>
</g>
<g>
	<path class="st4" d="M88.6,878.9c0-0.7,0.5-1.3,1.3-1.3h14.8c8.2,0,15,6.7,15,14.8c0,8.3-6.8,15.1-14.9,15.1H93.7v15.7
		c0,0.7-0.6,1.3-1.3,1.3h-2.5c-0.7,0-1.3-0.6-1.3-1.3V878.9z M104.4,902.5c5.5,0,10.2-4.5,10.2-10.3c0-5.4-4.7-9.6-10.2-9.6H93.7
		v19.8H104.4z"/>
	<path class="st4" d="M125,899c0-0.7,0.6-1.3,1.3-1.3h1.3c0.5,0,1,0.3,1.1,0.9l0.5,1.9c0,0,2.5-3.6,8-3.6c2,0,5.4,0.3,4.7,2.2
		l-0.8,2.3c-0.3,0.9-0.9,0.9-1.6,0.6c-0.6-0.3-1.6-0.5-2.6-0.5c-5.1,0-7.3,3.8-7.3,3.8v17.9c0,0.7-0.6,1.3-1.3,1.3h-2.1
		c-0.7,0-1.3-0.6-1.3-1.3V899z"/>
	<path class="st4" d="M158.6,897c7.4,0,13.3,6.4,13.3,14c0,7.7-5.9,14.1-13.3,14.1s-13.3-6.4-13.3-14.1
		C145.3,903.5,151.2,897,158.6,897z M158.6,920.8c4.9,0,8.7-4.4,8.7-9.8c0-5.3-3.8-9.6-8.7-9.6c-4.9,0-8.7,4.3-8.7,9.6
		C149.9,916.5,153.7,920.8,158.6,920.8z"/>
	<path class="st4" d="M181.6,901.7h-4.1c-0.7,0-1.3-0.6-1.3-1.3V899c0-0.7,0.5-1.3,1.3-1.3h4.1v-9.4c0-7.8,4.5-11.4,10.3-11.4
		c3.7,0,6.2,1.6,7.4,2.7c0.5,0.4,0.5,1.1,0.3,1.5l-1.1,1.7c-0.4,0.7-1.1,0.6-1.7,0.1c-0.9-0.7-2.9-1.9-4.9-1.9
		c-3.1,0-5.6,2.1-5.6,7.2v9.4h7.8c0.7,0,1.3,0.5,1.3,1.3v1.5c0,0.7-0.5,1.3-1.3,1.3h-7.8v21.5c0,0.7-0.6,1.3-1.3,1.3h-2.1
		c-0.7,0-1.3-0.6-1.3-1.3V901.7z"/>
	<path class="st4" d="M203.4,917.5c2.1,0,3.8,1.7,3.8,3.8c0,2.1-1.7,3.8-3.8,3.8c-2.1,0-3.8-1.7-3.8-3.8
		C199.6,919.2,201.3,917.5,203.4,917.5z"/>
	<path class="st4" d="M241.5,897c4.4,0,7.2,1.7,7.2,1.7v-19.9c0-0.7,0.6-1.3,1.3-1.3h2.1c0.7,0,1.3,0.6,1.3,1.3v44.4
		c0,0.7-0.6,1.3-1.3,1.3h-1.4c-0.6,0-1-0.5-1.1-1.1l-0.4-1.8c0,0-3.2,3.6-8.2,3.6c-6.8,0-12.2-6.4-12.2-14.1
		C228.7,903.2,233.5,897,241.5,897z M241.3,921c4.8,0,7.3-4.4,7.3-4.4v-13.4c0,0-2.8-1.6-6.5-1.6c-5.8,0-8.8,4.2-8.8,9.6
		C233.4,916.3,236.4,921,241.3,921z"/>
	<path class="st4" d="M262.9,899c0-0.7,0.6-1.3,1.3-1.3h1.3c0.5,0,1,0.3,1.1,0.9l0.5,1.9c0,0,2.5-3.6,8-3.6c2,0,5.4,0.3,4.7,2.2
		l-0.8,2.3c-0.3,0.9-0.9,0.9-1.6,0.6c-0.6-0.3-1.6-0.5-2.6-0.5c-5.1,0-7.3,3.8-7.3,3.8v17.9c0,0.7-0.6,1.3-1.3,1.3h-2.1
		c-0.7,0-1.3-0.6-1.3-1.3V899z"/>
	<path class="st4" d="M286.4,917.5c2.1,0,3.8,1.7,3.8,3.8c0,2.1-1.7,3.8-3.8,3.8c-2.1,0-3.8-1.7-3.8-3.8
		C282.5,919.2,284.3,917.5,286.4,917.5z"/>
	<path class="st4" d="M92.8,958.3c0.1-0.5,0.5-1,1.2-1h1.1c0.5,0,0.9,0.3,1.1,0.7l14.7,31.6c0.1,0,0.1,0,0.2,0l14.7-31.6
		c0.2-0.4,0.5-0.7,1.1-0.7h1.1c0.7,0,1.1,0.5,1.2,1l7.9,45c0.2,0.9-0.3,1.5-1.2,1.5h-6.1c-0.6,0-1.1-0.5-1.3-1l-4-25.4
		c-0.1,0-0.2,0-0.2,0l-11.7,26.3c-0.1,0.4-0.5,0.7-1.1,0.7h-1.2c-0.6,0-0.9-0.3-1.1-0.7l-11.9-26.3c0,0-0.1,0-0.2,0l-3.9,25.4
		c-0.1,0.5-0.6,1-1.2,1h-6c-0.9,0-1.4-0.6-1.3-1.5L92.8,958.3z"/>
	<path class="st4" d="M146.4,959.3c0-0.7,0.6-1.3,1.3-1.3h6.2c0.7,0,1.3,0.6,1.3,1.3v44.4c0,0.7-0.6,1.3-1.3,1.3h-6.2
		c-0.7,0-1.3-0.6-1.3-1.3V959.3z"/>
	<path class="st4" d="M167.4,959.3c0-0.7,0.5-1.3,1.3-1.3h6.2c0.7,0,1.3,0.6,1.3,1.3v37.6h17.1c0.7,0,1.3,0.6,1.3,1.3v5.5
		c0,0.7-0.5,1.3-1.3,1.3h-24.5c-0.7,0-1.3-0.6-1.3-1.3V959.3z"/>
	<path class="st4" d="M221.4,957.3c13.4,0,24.1,10.8,24.1,24.2s-10.7,24.1-24.1,24.1s-24.1-10.7-24.1-24.1S208,957.3,221.4,957.3z
		 M221.4,996.9c8.4,0,15.4-6.9,15.4-15.3c0-8.4-7-15.5-15.4-15.5s-15.3,7-15.3,15.5C206.1,990,213,996.9,221.4,996.9z"/>
	<path class="st4" d="M247.9,959.7c-0.4-0.9,0.1-1.7,1.1-1.7h6.8c0.6,0,1,0.4,1.1,0.7l12.9,28.8h0.5l12.9-28.8
		c0.1-0.3,0.5-0.7,1.1-0.7h6.8c1,0,1.5,0.9,1.1,1.7l-20.8,45.1c-0.2,0.4-0.5,0.7-1.1,0.7h-0.7c-0.6,0-0.9-0.3-1.1-0.7L247.9,959.7z"
		/>
	<path class="st4" d="M289,1003.2l20.8-45.1c0.2-0.4,0.5-0.7,1.1-0.7h0.7c0.7,0,0.9,0.3,1.1,0.7l20.6,45.1c0.4,0.9-0.1,1.7-1.1,1.7
		h-5.8c-1,0-1.5-0.4-1.9-1.3l-3.3-7.2h-20l-3.3,7.2c-0.3,0.7-0.9,1.3-1.9,1.3h-5.8C289.1,1004.9,288.6,1004,289,1003.2z
		 M317.9,988.9l-6.7-14.7H311l-6.6,14.7H317.9z"/>
	<path class="st4" d="M339.5,958.5c0-0.7,0.6-1.2,1.3-1.2h1.7l27.9,29.6h0.1v-27.7c0-0.7,0.5-1.3,1.3-1.3h6.2c0.7,0,1.3,0.6,1.3,1.3
		v45.1c0,0.7-0.6,1.2-1.3,1.2h-1.6l-28-30.8h-0.1v28.8c0,0.7-0.5,1.3-1.3,1.3h-6.1c-0.7,0-1.3-0.6-1.3-1.3V958.5z"/>
	<path class="st4" d="M411,958.3c0.1-0.5,0.5-1,1.2-1h1.1c0.5,0,0.9,0.3,1.1,0.7l14.7,31.6c0.1,0,0.1,0,0.2,0l14.7-31.6
		c0.2-0.4,0.5-0.7,1.1-0.7h1.1c0.7,0,1.1,0.5,1.2,1l7.9,45c0.2,0.9-0.3,1.5-1.2,1.5h-6.1c-0.6,0-1.1-0.5-1.3-1l-4-25.4
		c-0.1,0-0.2,0-0.2,0l-11.7,26.3c-0.1,0.4-0.5,0.7-1.1,0.7h-1.2c-0.6,0-0.9-0.3-1.1-0.7l-11.9-26.3c0,0-0.1,0-0.2,0l-3.9,25.4
		c-0.1,0.5-0.6,1-1.2,1h-6c-0.9,0-1.4-0.6-1.3-1.5L411,958.3z"/>
	<path class="st4" d="M464.6,959.3c0-0.7,0.6-1.3,1.3-1.3h6.2c0.7,0,1.3,0.6,1.3,1.3v44.4c0,0.7-0.6,1.3-1.3,1.3h-6.2
		c-0.7,0-1.3-0.6-1.3-1.3V959.3z"/>
	<path class="st4" d="M485.5,959.3c0-0.7,0.5-1.3,1.3-1.3h6.2c0.7,0,1.3,0.6,1.3,1.3v37.6h17.1c0.7,0,1.3,0.6,1.3,1.3v5.5
		c0,0.7-0.5,1.3-1.3,1.3h-24.5c-0.7,0-1.3-0.6-1.3-1.3V959.3z"/>
	<path class="st4" d="M539.6,957.3c13.4,0,24.1,10.8,24.1,24.2s-10.7,24.1-24.1,24.1s-24.1-10.7-24.1-24.1S526.2,957.3,539.6,957.3z
		 M539.6,996.9c8.4,0,15.4-6.9,15.4-15.3c0-8.4-7-15.5-15.4-15.5s-15.3,7-15.3,15.5C524.3,990,531.2,996.9,539.6,996.9z"/>
	<path class="st4" d="M566.1,959.7c-0.4-0.9,0.1-1.7,1.1-1.7h6.8c0.6,0,1,0.4,1.1,0.7l12.9,28.8h0.5l12.9-28.8
		c0.1-0.3,0.5-0.7,1.1-0.7h6.8c1,0,1.5,0.9,1.1,1.7l-20.8,45.1c-0.2,0.4-0.5,0.7-1.1,0.7h-0.7c-0.6,0-0.9-0.3-1.1-0.7L566.1,959.7z"
		/>
	<path class="st4" d="M607.2,1003.2l20.8-45.1c0.2-0.4,0.5-0.7,1.1-0.7h0.7c0.7,0,0.9,0.3,1.1,0.7l20.6,45.1
		c0.4,0.9-0.1,1.7-1.1,1.7h-5.8c-1,0-1.5-0.4-1.9-1.3l-3.3-7.2h-20l-3.3,7.2c-0.3,0.7-0.9,1.3-1.9,1.3h-5.8
		C607.3,1004.9,606.8,1004,607.2,1003.2z M636.1,988.9l-6.7-14.7h-0.2l-6.6,14.7H636.1z"/>
	<path class="st4" d="M657.7,958.5c0-0.7,0.6-1.2,1.3-1.2h1.7l27.9,29.6h0.1v-27.7c0-0.7,0.5-1.3,1.3-1.3h6.2c0.7,0,1.3,0.6,1.3,1.3
		v45.1c0,0.7-0.6,1.2-1.3,1.2h-1.6l-28-30.8h-0.1v28.8c0,0.7-0.5,1.3-1.3,1.3h-6.1c-0.7,0-1.3-0.6-1.3-1.3V958.5z"/>
	<path class="st4" d="M730.2,957.3c13.4,0,24.1,10.8,24.1,24.2s-10.7,24.1-24.1,24.1s-24.1-10.7-24.1-24.1S716.8,957.3,730.2,957.3z
		 M730.2,996.9c8.4,0,15.4-6.9,15.4-15.3c0-8.4-7-15.5-15.4-15.5s-15.3,7-15.3,15.5C714.8,990,721.7,996.9,730.2,996.9z"/>
	<path class="st4" d="M756.6,959.7c-0.4-0.9,0.1-1.7,1.1-1.7h6.8c0.6,0,1,0.4,1.1,0.7l12.9,28.8h0.5l12.9-28.8
		c0.1-0.3,0.5-0.7,1.1-0.7h6.8c1,0,1.5,0.9,1.1,1.7l-20.8,45.1c-0.2,0.4-0.5,0.7-1.1,0.7h-0.7c-0.6,0-0.9-0.3-1.1-0.7L756.6,959.7z"
		/>
	<path class="st4" d="M807.1,959.3c0-0.7,0.6-1.3,1.3-1.3h6.2c0.7,0,1.3,0.6,1.3,1.3v44.4c0,0.7-0.6,1.3-1.3,1.3h-6.2
		c-0.7,0-1.3-0.6-1.3-1.3V959.3z"/>
	<path class="st4" d="M848.9,957.3c6.8,0,11.7,2.1,16.2,6.2c0.6,0.5,0.6,1.3,0.1,1.9l-4.1,4.2c-0.5,0.5-1.1,0.5-1.7,0
		c-2.8-2.5-6.6-4-10.3-4c-8.6,0-14.9,7.2-14.9,15.6c0,8.4,6.4,15.5,15,15.5c4,0,7.4-1.5,10.3-3.8c0.5-0.5,1.3-0.4,1.7,0l4.2,4.3
		c0.5,0.5,0.4,1.3-0.1,1.8c-4.6,4.4-10.3,6.5-16.3,6.5c-13.4,0-24.2-10.7-24.2-24.1S835.5,957.3,848.9,957.3z M842.8,953l-1.2-2.3
		c-0.3-0.5,0.1-1.1,0.4-1.3l11-6.6c0.7-0.5,1.4-0.4,1.7,0.2l1.9,3.5c0.5,0.8,0.2,1.5-0.4,1.8l-11.7,5.2
		C843.5,953.9,843.1,953.6,842.8,953z"/>
	<path class="st4" d="M87.4,1069.4v-1.3c0-0.7,0.5-1.3,1.3-1.3h14c0.7,0,1.3,0.5,1.3,1.3v1.3c0,0.7-0.5,1.2-1.3,1.2h-14
		C87.9,1070.6,87.4,1070,87.4,1069.4z"/>
	<path class="st4" d="M140.5,1057.8c7.4,0,13.3,6.4,13.3,14c0,7.7-5.9,14.1-13.3,14.1s-13.3-6.4-13.3-14.1
		C127.2,1064.3,133.1,1057.8,140.5,1057.8z M140.5,1081.6c4.9,0,8.7-4.4,8.7-9.8c0-5.3-3.8-9.6-8.7-9.6c-4.9,0-8.7,4.3-8.7,9.6
		C131.8,1077.3,135.6,1081.6,140.5,1081.6z"/>
	<path class="st4" d="M163.1,1062.5h-3.4c-0.7,0-1.3-0.6-1.3-1.3v-1.5c0-0.7,0.5-1.3,1.3-1.3h3.4v-7.4c0-0.7,0.6-1.3,1.3-1.3
		l2.1-0.1c0.7,0,1.2,0.6,1.2,1.3v7.6h7.8c0.7,0,1.3,0.5,1.3,1.3v1.5c0,0.7-0.5,1.3-1.3,1.3h-7.8v15.7c0,2.7,0.7,3.2,2.2,3.2
		c1.7,0,4-1,4.9-1.5c1-0.5,1.3-0.1,1.6,0.4l1,1.7c0.5,0.8,0.3,1.2-0.5,1.7c-0.9,0.6-4.6,2.3-7.7,2.3c-5.4,0-6.2-3.2-6.2-7.4V1062.5z
		"/>
	<path class="st4" d="M195.7,1057.8c7.4,0,13.3,6.4,13.3,14c0,7.7-5.9,14.1-13.3,14.1s-13.3-6.4-13.3-14.1
		C182.4,1064.3,188.3,1057.8,195.7,1057.8z M195.7,1081.6c4.9,0,8.7-4.4,8.7-9.8c0-5.3-3.8-9.6-8.7-9.6c-4.9,0-8.7,4.3-8.7,9.6
		C187,1077.3,190.8,1081.6,195.7,1081.6z"/>
	<path class="st4" d="M216.6,1059.8c0-0.7,0.6-1.3,1.3-1.3h1.3c0.5,0,1,0.3,1.1,0.9l0.5,1.9c0,0,2.5-3.6,8-3.6c2,0,5.4,0.3,4.7,2.2
		l-0.8,2.3c-0.3,0.9-0.9,0.9-1.6,0.6c-0.6-0.3-1.6-0.5-2.6-0.5c-5.1,0-7.3,3.8-7.3,3.8v17.9c0,0.7-0.6,1.3-1.3,1.3h-2.1
		c-0.7,0-1.3-0.6-1.3-1.3V1059.8z"/>
	<path class="st4" d="M238.1,1043c0-1.8,1.4-3.2,3.1-3.2c1.8,0,3.2,1.4,3.2,3.2c0,1.7-1.4,3.1-3.2,3.1
		C239.5,1046.1,238.1,1044.7,238.1,1043z M239,1059.8c0-0.7,0.6-1.3,1.3-1.3h2.1c0.7,0,1.3,0.6,1.3,1.3v24.3c0,0.7-0.6,1.3-1.3,1.3
		h-2.1c-0.7,0-1.3-0.6-1.3-1.3V1059.8z"/>
	<path class="st4" d="M253.1,1059.8c0-0.7,0.6-1.3,1.3-1.3h1.3c0.6,0,0.9,0.3,1.1,0.8l0.6,2.1c0,0,3.8-3.6,9.4-3.6
		c7.8,0,10.4,5.1,10.4,12.1v14.1c0,0.7-0.6,1.3-1.3,1.3h-2.1c-0.7,0-1.3-0.6-1.3-1.3v-14.1c0-5.1-2.3-7.6-6-7.6
		c-5,0-8.6,3.8-8.6,3.8v17.9c0,0.7-0.6,1.3-1.3,1.3h-2.1c-0.7,0-1.3-0.6-1.3-1.3V1059.8z"/>
	<path class="st4" d="M297.7,1057.8c7.4,0,13.3,6.4,13.3,14c0,7.7-5.9,14.1-13.3,14.1c-7.4,0-13.3-6.4-13.3-14.1
		C284.3,1064.3,290.2,1057.8,297.7,1057.8z M297.7,1081.6c4.9,0,8.7-4.4,8.7-9.8c0-5.3-3.8-9.6-8.7-9.6c-4.9,0-8.7,4.3-8.7,9.6
		C289,1077.3,292.8,1081.6,297.7,1081.6z"/>
	<path class="st4" d="M318.7,1039.7c0-0.7,0.6-1.3,1.3-1.3h2.1c0.7,0,1.3,0.6,1.3,1.3v44.4c0,0.7-0.6,1.3-1.3,1.3h-2.1
		c-0.7,0-1.3-0.6-1.3-1.3V1039.7z"/>
	<path class="st4" d="M341.6,1068.3c2.9,0,5.7,0.9,5.7,0.9c0.1-5-0.5-7.2-4.4-7.2c-3.7,0-6.8,1-8,1.5c-0.7,0.3-1.1-0.1-1.3-0.7
		l-0.5-1.7c-0.3-0.8,0.1-1.2,0.7-1.5c0.4-0.2,4.3-1.7,9.3-1.7c6.8,0,8.5,3.5,8.5,11.3v14.9c0,0.7-0.6,1.3-1.3,1.3h-1.3
		c-0.7,0-0.9-0.4-1.1-1l-0.5-1.8c-1.4,1.4-4.2,3.5-8.3,3.5c-4.7,0-8.2-3.4-8.2-8.8C330.9,1072.1,334.7,1068.3,341.6,1068.3z
		 M339.9,1082c3.4,0,6.2-2.1,7.4-3.8v-5.3c-0.8-0.5-2.7-1.1-5.6-1.1c-3.8,0-6.4,1.9-6.4,5.4C335.2,1079.9,337,1082,339.9,1082z"/>
	<path class="st4" d="M361,1059.8c0-0.7,0.6-1.3,1.3-1.3h1.3c0.5,0,1,0.3,1.1,0.9l0.5,1.9c0,0,2.5-3.6,8-3.6c2,0,5.4,0.3,4.7,2.2
		l-0.8,2.3c-0.3,0.9-0.9,0.9-1.6,0.6c-0.6-0.3-1.6-0.5-2.6-0.5c-5.1,0-7.3,3.8-7.3,3.8v17.9c0,0.7-0.6,1.3-1.3,1.3h-2.1
		c-0.7,0-1.3-0.6-1.3-1.3V1059.8z"/>
	<path class="st4" d="M382.4,1043c0-1.8,1.4-3.2,3.1-3.2c1.8,0,3.2,1.4,3.2,3.2c0,1.7-1.4,3.1-3.2,3.1
		C383.8,1046.1,382.4,1044.7,382.4,1043z M383.4,1059.8c0-0.7,0.6-1.3,1.3-1.3h2.1c0.7,0,1.3,0.6,1.3,1.3v24.3
		c0,0.7-0.6,1.3-1.3,1.3h-2.1c-0.7,0-1.3-0.6-1.3-1.3V1059.8z"/>
	<path class="st4" d="M397.5,1059.8c0-0.7,0.6-1.3,1.3-1.3h1.3c0.6,0,0.9,0.3,1.1,0.8l0.6,2.1c0,0,3.8-3.6,9.4-3.6
		c7.8,0,10.4,5.1,10.4,12.1v14.1c0,0.7-0.6,1.3-1.3,1.3h-2.1c-0.7,0-1.3-0.6-1.3-1.3v-14.1c0-5.1-2.3-7.6-6-7.6
		c-5,0-8.6,3.8-8.6,3.8v17.9c0,0.7-0.6,1.3-1.3,1.3h-2.1c-0.7,0-1.3-0.6-1.3-1.3V1059.8z"/>
	<path class="st4" d="M432.5,1076.3c0,0-2.1-2.7-2.1-6.7c0-6.2,4.4-11.8,11.3-11.8H453c0.7,0,1.3,0.5,1.3,1.3v1.1
		c0,0.5-0.3,1.1-0.7,1.1l-3.6,0.7c0,0,3,2.2,3,7.5c0,6.1-4.4,11.4-11.3,11.4c-4.3,0-6.4-1.7-6.4-1.7s-2.9,1.3-2.9,4
		c0,1.7,1.2,3.3,3.7,3.3h9.6c5.6,0,10,2.7,10,8.6c0,5.6-5.8,10.9-13.9,10.9c-9,0-12.9-4.8-12.9-9.2c0-4,3.2-5.8,3.9-6.2v-0.2
		c-1.7-0.5-4.9-2.2-4.9-6.4C428,1078.9,432.5,1076.3,432.5,1076.3z M441.8,1101.7c4.4,0,9-2.5,9-6.4c0-0.9-0.4-4.4-5.1-4.4
		c-2.5,0-5,0-7.4,0c0,0-4.5,1.2-4.5,5.2C433.8,1099.4,437.2,1101.7,441.8,1101.7z M448.4,1069.5c0-4.4-2.7-7.5-6.7-7.5
		c-4.1,0-7,3.1-7,7.5s2.9,7.5,7,7.5C445.8,1077,448.4,1073.9,448.4,1069.5z"/>
	<path class="st4" d="M472.8,1057.8c7.4,0,13.3,6.4,13.3,14c0,7.7-5.9,14.1-13.3,14.1c-7.4,0-13.3-6.4-13.3-14.1
		C459.5,1064.3,465.4,1057.8,472.8,1057.8z M472.8,1081.6c4.9,0,8.7-4.4,8.7-9.8c0-5.3-3.8-9.6-8.7-9.6c-4.9,0-8.7,4.3-8.7,9.6
		C464.1,1077.3,467.9,1081.6,472.8,1081.6z"/>
	<path class="st4" d="M493.8,1039.7c0-0.7,0.6-1.3,1.3-1.3h2.1c0.7,0,1.3,0.6,1.3,1.3v44.4c0,0.7-0.6,1.3-1.3,1.3h-2.1
		c-0.7,0-1.3-0.6-1.3-1.3V1039.7z"/>
	<path class="st4" d="M519.4,1057.8c7.4,0,13.3,6.4,13.3,14c0,7.7-5.9,14.1-13.3,14.1c-7.4,0-13.3-6.4-13.3-14.1
		C506.1,1064.3,511.9,1057.8,519.4,1057.8z M519.4,1081.6c4.9,0,8.7-4.4,8.7-9.8c0-5.3-3.8-9.6-8.7-9.6c-4.9,0-8.7,4.3-8.7,9.6
		C510.7,1077.3,514.5,1081.6,519.4,1081.6z"/>
	<path class="st4" d="M542.1,1076.3c0,0-2.1-2.7-2.1-6.7c0-6.2,4.4-11.8,11.3-11.8h11.3c0.7,0,1.3,0.5,1.3,1.3v1.1
		c0,0.5-0.3,1.1-0.7,1.1l-3.6,0.7c0,0,3,2.2,3,7.5c0,6.1-4.4,11.4-11.3,11.4c-4.3,0-6.4-1.7-6.4-1.7s-2.9,1.3-2.9,4
		c0,1.7,1.2,3.3,3.7,3.3h9.6c5.6,0,10,2.7,10,8.6c0,5.6-5.8,10.9-13.9,10.9c-9,0-12.9-4.8-12.9-9.2c0-4,3.2-5.8,3.9-6.2v-0.2
		c-1.7-0.5-4.9-2.2-4.9-6.4C537.6,1078.9,542.1,1076.3,542.1,1076.3z M551.4,1101.7c4.4,0,9-2.5,9-6.4c0-0.9-0.4-4.4-5.1-4.4
		c-2.5,0-5,0-7.4,0c0,0-4.5,1.2-4.5,5.2C543.4,1099.4,546.9,1101.7,551.4,1101.7z M558,1069.5c0-4.4-2.7-7.5-6.7-7.5
		c-4.1,0-7,3.1-7,7.5s2.9,7.5,7,7.5C555.4,1077,558,1073.9,558,1069.5z"/>
</g>
</svg>
