<?xml version="1.0" encoding="utf-8"?>
<!-- Generator: Adobe Illustrator 24.1.2, SVG Export Plug-In . SVG Version: 6.00 Build 0)  -->
<svg version="1.1" id="Layer_1" xmlns="http://www.w3.org/2000/svg" xmlns:xlink="http://www.w3.org/1999/xlink" x="0px" y="0px"
	 viewBox="0 0 1920 1200" style="enable-background:new 0 0 1920 1200;" xml:space="preserve">
<style type="text/css">
	.st0{fill:#E8E9EB;}
	.st1{fill:#D2D2D3;}
	.st2{fill:#363D44;}
	.st3{fill:#C33D54;}
	.st4{fill:#FFFFFF;}
</style>
<polygon class="st0" points="1920,0 1920,207.1 1612.5,86.3 1077.1,667.4 1920,781.8 1920,797.1 1064.5,681 586.2,1200 565.6,1200 
	1046.2,678.5 0,536.4 0,521.1 1058.7,664.9 1597.3,80.4 1392.6,0 "/>
<polygon class="st0" points="1920,207.1 1920,781.8 1077.1,667.4 1612.5,86.3 "/>
<g>
	<path class="st1" d="M1674.5,324.5h-100.1c-10.4,0-18.8-9.4-18.8-19.8V239c0-4.2,3.1-12.5,6.3-15.6l152.2-118.8h95.9
		c10.4,0,18.8,9.4,18.8,19.8v669.2c0,10.4-8.3,19.8-18.8,19.8h-115.7c-11.5,0-19.8-9.4-19.8-19.8V324.5z"/>
</g>
<polygon class="st0" points="1046.2,678.5 565.6,1200 0,1200 0,536.4 "/>
<polygon class="st3" points="1920,797.1 1920,1200 586.2,1200 1064.5,681 "/>
<polygon class="st0" points="1597.3,80.4 1058.7,664.9 0,521.1 0,0 1392.6,0 "/>
<polygon class="st2" points="1920,797.1 1064.5,681 1046.2,678.5 0,536.4 0,521.1 1058.7,664.9 1077.1,667.4 1920,781.8 "/>
<polygon class="st3" points="1434.1,0 1608.4,68.4 1623.5,74.4 1920,190.8 1920,207.1 1612.5,86.3 1597.3,80.4 1392.6,0 "/>
<polygon class="st4" points="1692.1,0 1623.5,74.4 1612.5,86.3 1077.1,667.4 1064.5,681 586.2,1200 565.6,1200 1046.2,678.5 
	1058.7,664.9 1597.3,80.4 1608.4,68.4 1671.4,0 "/>
<g>
	<path class="st3" d="M182.4,244.7c0-1.6,1.4-3,3-3h19.2c1.7,0,3,1.4,3,3V308c0,10.9,8.1,19.7,19.2,19.7c11.3,0,19.5-8.8,19.5-19.7
		v-63.3c0-1.6,1.3-3,3-3h19.2c1.6,0,3,1.4,3,3v64.5c0,23.8-20,43.4-44.7,43.4c-24.5,0-44.4-19.7-44.4-43.4V244.7z"/>
	<path class="st3" d="M296.6,244.7c0-1.6,1.3-3,3-3h18.6c1.6,0,3,1.4,3,3v83.5h37.2c1.7,0,3,1.4,3,3v17c0,1.6-1.3,3-3,3h-58.8
		c-1.7,0-3-1.4-3-3V244.7z"/>
	<path class="st3" d="M384.6,264.7h-22.3c-1.7,0-3-1.4-3-3v-17c0-1.6,1.3-3,3-3h69.4c1.7,0,3,1.4,3,3v17c0,1.6-1.3,3-3,3h-22.3v83.5
		c0,1.6-1.4,3-3,3h-18.8c-1.6,0-3-1.4-3-3V264.7z"/>
	<path class="st3" d="M450.2,244.7c0-1.6,1.3-3,3-3h46.7c18.8,0,34.1,15.2,34.1,33.8c0,14.4-9.5,25.9-23.1,31.4l21.4,39.7
		c1.1,2,0,4.5-2.7,4.5h-20.8c-1.3,0-2.2-0.8-2.5-1.4l-20.8-41.4h-10.8v39.9c0,1.6-1.4,3-3,3h-18.6c-1.7,0-3-1.4-3-3V244.7z
		 M497.9,288.5c6.4,0,11.9-5.9,11.9-12.5s-5.5-11.9-11.9-11.9h-23.1v24.4H497.9z"/>
	<path class="st3" d="M540.9,347.1l48.9-105.2c0.5-0.9,1.6-1.7,2.7-1.7h1.6c1.1,0,2.2,0.8,2.7,1.7l48.9,105.2c0.9,2-0.3,4.1-2.7,4.1
		h-17.3c-2.8,0-4.1-0.9-5.5-3.9l-5.6-12.3H572l-5.6,12.5c-0.8,1.9-2.5,3.8-5.6,3.8h-17.2C541.2,351.2,539.9,349.1,540.9,347.1z
		 M605.1,313.7l-11.9-25.8h-0.2l-11.7,25.8H605.1z"/>
	<path class="st3" d="M648.5,345.4l41.6-80.3v-0.3H656c-1.6,0-3-1.4-3-3v-17c0-1.6,1.4-3,3-3h66.4c1.6,0,3,1.4,3,3v2l-40.2,81.1v0.3
		h34.1c1.7,0,3,1.4,3,3v17c0,1.6-1.3,3-3,3h-67.8c-1.6,0-3-1.4-3-3V345.4z"/>
	<path class="st3" d="M729,245.8c-0.9-2,0.3-4.1,2.7-4.1h20.8c1.3,0,2.3,0.9,2.7,1.7l25.8,57h0.9l25.8-57c0.3-0.8,1.4-1.7,2.7-1.7
		h20.8c2.3,0,3.6,2,2.7,4.1L784.7,351c-0.5,0.9-1.4,1.7-2.7,1.7h-1.6c-1.3,0-2.2-0.8-2.7-1.7L729,245.8z"/>
	<path class="st3" d="M845,244.7c0-1.6,1.4-3,3-3h19.2c1.7,0,3,1.4,3,3V308c0,10.9,8.1,19.7,19.2,19.7c11.3,0,19.5-8.8,19.5-19.7
		v-63.3c0-1.6,1.3-3,3-3h19.2c1.6,0,3,1.4,3,3v64.5c0,23.8-20,43.4-44.7,43.4c-24.5,0-44.4-19.7-44.4-43.4V244.7z"/>
	<path class="st3" d="M959.2,245.5c0-2,1.6-3.8,3.8-3.8h18.3c2,0,3.8,1.7,3.8,3.8v41.1l34.7-43.3c0.6-0.8,2-1.6,3-1.6h19.7
		c3,0,4.5,3.4,2.8,5.8l-36.6,45.8l39.9,51.9c1.7,2.3,0,5.8-3,5.8h-21.6c-1.1,0-2.5-0.6-2.8-1.1L985,300.8v46.6c0,2-1.7,3.8-3.8,3.8
		H963c-2.2,0-3.8-1.7-3.8-3.8V245.5z"/>
</g>
<g>
	<path class="st2" d="M1660.3,353.7h-62.4c-6.5,0-11.7-5.9-11.7-12.4v-40.9c0-2.6,2-7.8,3.9-9.8l94.9-74.1h59.8
		c6.5,0,11.7,5.9,11.7,12.4v417.3c0,6.5-5.2,12.3-11.7,12.3h-72.1c-7.2,0-12.3-5.8-12.3-12.3V353.7z"/>
</g>
<g>
	<path class="st4" d="M1543.7,892.1c0-0.7,0.5-1.3,1.3-1.3h14.8c8.2,0,15,6.7,15,14.8c0,8.3-6.8,15.1-14.9,15.1h-11.1v15.7
		c0,0.7-0.6,1.3-1.3,1.3h-2.5c-0.7,0-1.3-0.6-1.3-1.3V892.1z M1559.5,915.7c5.5,0,10.2-4.5,10.2-10.3c0-5.4-4.7-9.6-10.2-9.6h-10.7
		v19.8H1559.5z"/>
	<path class="st4" d="M1580.1,912.2c0-0.7,0.6-1.3,1.3-1.3h1.3c0.5,0,1,0.3,1.1,0.9l0.5,1.9c0,0,2.5-3.6,8-3.6c2,0,5.4,0.3,4.7,2.2
		l-0.8,2.3c-0.3,0.9-0.9,0.9-1.6,0.6c-0.6-0.3-1.6-0.5-2.6-0.5c-5.1,0-7.3,3.8-7.3,3.8v17.9c0,0.7-0.6,1.3-1.3,1.3h-2.1
		c-0.7,0-1.3-0.6-1.3-1.3V912.2z"/>
	<path class="st4" d="M1613.7,910.2c7.4,0,13.3,6.4,13.3,14c0,7.7-5.9,14.1-13.3,14.1c-7.4,0-13.3-6.4-13.3-14.1
		C1600.3,916.7,1606.2,910.2,1613.7,910.2z M1613.7,934c4.9,0,8.7-4.4,8.7-9.8c0-5.3-3.8-9.6-8.7-9.6c-4.9,0-8.7,4.3-8.7,9.6
		C1605,929.7,1608.8,934,1613.7,934z"/>
	<path class="st4" d="M1636.7,914.9h-4.1c-0.7,0-1.3-0.6-1.3-1.3v-1.5c0-0.7,0.5-1.3,1.3-1.3h4.1v-9.4c0-7.8,4.5-11.4,10.3-11.4
		c3.7,0,6.2,1.6,7.4,2.7c0.5,0.4,0.5,1.1,0.3,1.5l-1.1,1.7c-0.4,0.7-1.1,0.6-1.7,0.1c-0.9-0.7-2.9-1.9-4.9-1.9
		c-3.1,0-5.6,2.1-5.6,7.2v9.4h7.8c0.7,0,1.3,0.5,1.3,1.3v1.5c0,0.7-0.5,1.3-1.3,1.3h-7.8v21.5c0,0.7-0.6,1.3-1.3,1.3h-2.1
		c-0.7,0-1.3-0.6-1.3-1.3V914.9z"/>
	<path class="st4" d="M1658.5,930.7c2.1,0,3.8,1.7,3.8,3.8c0,2.1-1.7,3.8-3.8,3.8c-2.1,0-3.8-1.7-3.8-3.8
		C1654.7,932.4,1656.4,930.7,1658.5,930.7z"/>
	<path class="st4" d="M1696.6,910.2c4.4,0,7.2,1.7,7.2,1.7v-19.9c0-0.7,0.6-1.3,1.3-1.3h2.1c0.7,0,1.3,0.6,1.3,1.3v44.4
		c0,0.7-0.6,1.3-1.3,1.3h-1.4c-0.6,0-1-0.5-1.1-1.1l-0.4-1.8c0,0-3.2,3.6-8.2,3.6c-6.8,0-12.2-6.4-12.2-14.1
		C1683.7,916.4,1688.6,910.2,1696.6,910.2z M1696.4,934.2c4.8,0,7.3-4.4,7.3-4.4v-13.4c0,0-2.8-1.6-6.5-1.6c-5.8,0-8.8,4.2-8.8,9.6
		C1688.4,929.5,1691.5,934.2,1696.4,934.2z"/>
	<path class="st4" d="M1718,912.2c0-0.7,0.6-1.3,1.3-1.3h1.3c0.5,0,1,0.3,1.1,0.9l0.5,1.9c0,0,2.5-3.6,8-3.6c2,0,5.4,0.3,4.7,2.2
		l-0.8,2.3c-0.3,0.9-0.9,0.9-1.6,0.6c-0.6-0.3-1.6-0.5-2.6-0.5c-5.1,0-7.3,3.8-7.3,3.8v17.9c0,0.7-0.6,1.3-1.3,1.3h-2.1
		c-0.7,0-1.3-0.6-1.3-1.3V912.2z"/>
	<path class="st4" d="M1741.4,930.7c2.1,0,3.8,1.7,3.8,3.8c0,2.1-1.7,3.8-3.8,3.8c-2.1,0-3.8-1.7-3.8-3.8
		C1737.6,932.4,1739.4,930.7,1741.4,930.7z"/>
	<path class="st4" d="M988.8,971.5c0.1-0.5,0.5-1,1.2-1h1.1c0.5,0,0.9,0.3,1.1,0.7l14.7,31.6c0.1,0,0.1,0,0.2,0l14.7-31.6
		c0.2-0.4,0.5-0.7,1.1-0.7h1.1c0.7,0,1.1,0.5,1.2,1l7.9,45c0.2,0.9-0.3,1.5-1.2,1.5h-6.1c-0.6,0-1.1-0.5-1.3-1l-4-25.4
		c-0.1,0-0.2,0-0.2,0l-11.7,26.3c-0.1,0.4-0.5,0.7-1.1,0.7h-1.2c-0.6,0-0.9-0.3-1.1-0.7l-11.9-26.3c0,0-0.1,0-0.2,0l-3.9,25.4
		c-0.1,0.5-0.6,1-1.2,1h-6c-0.9,0-1.4-0.6-1.3-1.5L988.8,971.5z"/>
	<path class="st4" d="M1042.4,972.5c0-0.7,0.6-1.3,1.3-1.3h6.2c0.7,0,1.3,0.6,1.3,1.3v44.4c0,0.7-0.6,1.3-1.3,1.3h-6.2
		c-0.7,0-1.3-0.6-1.3-1.3V972.5z"/>
	<path class="st4" d="M1063.3,972.5c0-0.7,0.5-1.3,1.3-1.3h6.2c0.7,0,1.3,0.6,1.3,1.3v37.6h17.1c0.7,0,1.3,0.6,1.3,1.3v5.5
		c0,0.7-0.5,1.3-1.3,1.3h-24.5c-0.7,0-1.3-0.6-1.3-1.3V972.5z"/>
	<path class="st4" d="M1117.4,970.5c13.4,0,24.1,10.8,24.1,24.2s-10.7,24.1-24.1,24.1s-24.1-10.7-24.1-24.1S1104,970.5,1117.4,970.5
		z M1117.4,1010.1c8.4,0,15.4-6.9,15.4-15.3c0-8.4-7-15.5-15.4-15.5s-15.3,7-15.3,15.5C1102.1,1003.2,1109,1010.1,1117.4,1010.1z"/>
	<path class="st4" d="M1143.9,973c-0.4-0.9,0.1-1.7,1.1-1.7h6.8c0.6,0,1,0.4,1.1,0.7l12.9,28.8h0.5l12.9-28.8
		c0.1-0.3,0.5-0.7,1.1-0.7h6.8c1,0,1.5,0.9,1.1,1.7l-20.8,45.1c-0.2,0.4-0.5,0.7-1.1,0.7h-0.7c-0.6,0-0.9-0.3-1.1-0.7L1143.9,973z"
		/>
	<path class="st4" d="M1184.9,1016.4l20.8-45.1c0.2-0.4,0.5-0.7,1.1-0.7h0.7c0.7,0,0.9,0.3,1.1,0.7l20.6,45.1
		c0.4,0.9-0.1,1.7-1.1,1.7h-5.8c-1,0-1.5-0.4-1.9-1.3l-3.3-7.2h-20l-3.3,7.2c-0.3,0.7-0.9,1.3-1.9,1.3h-5.8
		C1185.1,1018.1,1184.5,1017.2,1184.9,1016.4z M1213.9,1002.1l-6.7-14.7h-0.2l-6.6,14.7H1213.9z"/>
	<path class="st4" d="M1235.5,971.7c0-0.7,0.6-1.2,1.3-1.2h1.7l27.9,29.6h0.1v-27.7c0-0.7,0.5-1.3,1.3-1.3h6.2
		c0.7,0,1.3,0.6,1.3,1.3v45.1c0,0.7-0.6,1.2-1.3,1.2h-1.6l-28-30.8h-0.1v28.8c0,0.7-0.5,1.3-1.3,1.3h-6.1c-0.7,0-1.3-0.6-1.3-1.3
		V971.7z"/>
	<path class="st4" d="M1306.9,971.5c0.1-0.5,0.5-1,1.2-1h1.1c0.5,0,0.9,0.3,1.1,0.7l14.7,31.6c0.1,0,0.1,0,0.2,0l14.7-31.6
		c0.2-0.4,0.5-0.7,1.1-0.7h1.1c0.7,0,1.1,0.5,1.2,1l7.9,45c0.2,0.9-0.3,1.5-1.2,1.5h-6.1c-0.6,0-1.1-0.5-1.3-1l-4-25.4
		c-0.1,0-0.2,0-0.2,0l-11.7,26.3c-0.1,0.4-0.5,0.7-1.1,0.7h-1.2c-0.6,0-0.9-0.3-1.1-0.7l-11.9-26.3c0,0-0.1,0-0.2,0l-3.9,25.4
		c-0.1,0.5-0.6,1-1.2,1h-6c-0.9,0-1.4-0.6-1.3-1.5L1306.9,971.5z"/>
	<path class="st4" d="M1360.5,972.5c0-0.7,0.6-1.3,1.3-1.3h6.2c0.7,0,1.3,0.6,1.3,1.3v44.4c0,0.7-0.6,1.3-1.3,1.3h-6.2
		c-0.7,0-1.3-0.6-1.3-1.3V972.5z"/>
	<path class="st4" d="M1381.5,972.5c0-0.7,0.5-1.3,1.3-1.3h6.2c0.7,0,1.3,0.6,1.3,1.3v37.6h17.1c0.7,0,1.3,0.6,1.3,1.3v5.5
		c0,0.7-0.5,1.3-1.3,1.3h-24.5c-0.7,0-1.3-0.6-1.3-1.3V972.5z"/>
	<path class="st4" d="M1435.6,970.5c13.4,0,24.1,10.8,24.1,24.2s-10.7,24.1-24.1,24.1s-24.1-10.7-24.1-24.1
		S1422.2,970.5,1435.6,970.5z M1435.6,1010.1c8.4,0,15.4-6.9,15.4-15.3c0-8.4-7-15.5-15.4-15.5s-15.3,7-15.3,15.5
		C1420.2,1003.2,1427.1,1010.1,1435.6,1010.1z"/>
	<path class="st4" d="M1462,973c-0.4-0.9,0.1-1.7,1.1-1.7h6.8c0.6,0,1,0.4,1.1,0.7l12.9,28.8h0.5l12.9-28.8c0.1-0.3,0.5-0.7,1.1-0.7
		h6.8c1,0,1.5,0.9,1.1,1.7l-20.8,45.1c-0.2,0.4-0.5,0.7-1.1,0.7h-0.7c-0.6,0-0.9-0.3-1.1-0.7L1462,973z"/>
	<path class="st4" d="M1503.1,1016.4l20.8-45.1c0.2-0.4,0.5-0.7,1.1-0.7h0.7c0.7,0,0.9,0.3,1.1,0.7l20.6,45.1
		c0.4,0.9-0.1,1.7-1.1,1.7h-5.8c-1,0-1.5-0.4-1.9-1.3l-3.3-7.2h-20l-3.3,7.2c-0.3,0.7-0.9,1.3-1.9,1.3h-5.8
		C1503.3,1018.1,1502.7,1017.2,1503.1,1016.4z M1532.1,1002.1l-6.7-14.7h-0.2l-6.6,14.7H1532.1z"/>
	<path class="st4" d="M1553.6,971.7c0-0.7,0.6-1.2,1.3-1.2h1.7l27.9,29.6h0.1v-27.7c0-0.7,0.5-1.3,1.3-1.3h6.2
		c0.7,0,1.3,0.6,1.3,1.3v45.1c0,0.7-0.6,1.2-1.3,1.2h-1.6l-28-30.8h-0.1v28.8c0,0.7-0.5,1.3-1.3,1.3h-6.1c-0.7,0-1.3-0.6-1.3-1.3
		V971.7z"/>
	<path class="st4" d="M1626.1,970.5c13.4,0,24.1,10.8,24.1,24.2s-10.7,24.1-24.1,24.1s-24.1-10.7-24.1-24.1
		S1612.7,970.5,1626.1,970.5z M1626.1,1010.1c8.4,0,15.4-6.9,15.4-15.3c0-8.4-7-15.5-15.4-15.5s-15.3,7-15.3,15.5
		C1610.8,1003.2,1617.7,1010.1,1626.1,1010.1z"/>
	<path class="st4" d="M1652.6,973c-0.4-0.9,0.1-1.7,1.1-1.7h6.8c0.6,0,1,0.4,1.1,0.7l12.9,28.8h0.5l12.9-28.8
		c0.1-0.3,0.5-0.7,1.1-0.7h6.8c1,0,1.5,0.9,1.1,1.7l-20.8,45.1c-0.2,0.4-0.5,0.7-1.1,0.7h-0.7c-0.6,0-0.9-0.3-1.1-0.7L1652.6,973z"
		/>
	<path class="st4" d="M1703.1,972.5c0-0.7,0.6-1.3,1.3-1.3h6.2c0.7,0,1.3,0.6,1.3,1.3v44.4c0,0.7-0.6,1.3-1.3,1.3h-6.2
		c-0.7,0-1.3-0.6-1.3-1.3V972.5z"/>
	<path class="st4" d="M1744.9,970.5c6.8,0,11.7,2.1,16.2,6.2c0.6,0.5,0.6,1.3,0.1,1.9l-4.1,4.2c-0.5,0.5-1.1,0.5-1.7,0
		c-2.8-2.5-6.6-4-10.3-4c-8.6,0-14.9,7.2-14.9,15.6c0,8.4,6.4,15.5,15,15.5c4,0,7.4-1.5,10.3-3.8c0.5-0.5,1.3-0.4,1.7,0l4.2,4.3
		c0.5,0.5,0.4,1.3-0.1,1.8c-4.6,4.4-10.3,6.5-16.3,6.5c-13.4,0-24.2-10.7-24.2-24.1S1731.5,970.5,1744.9,970.5z M1738.8,966.2
		l-1.2-2.3c-0.3-0.5,0.1-1.1,0.4-1.3l11-6.6c0.7-0.5,1.4-0.4,1.7,0.2l1.9,3.5c0.5,0.8,0.2,1.5-0.4,1.8l-11.7,5.2
		C1739.5,967.1,1739,966.8,1738.8,966.2z"/>
	<path class="st4" d="M1284.9,1082.6v-1.3c0-0.7,0.5-1.3,1.3-1.3h14c0.7,0,1.3,0.5,1.3,1.3v1.3c0,0.7-0.5,1.2-1.3,1.2h-14
		C1285.4,1083.8,1284.9,1083.2,1284.9,1082.6z"/>
	<path class="st4" d="M1338,1071c7.4,0,13.3,6.4,13.3,14c0,7.7-5.9,14.1-13.3,14.1c-7.4,0-13.3-6.4-13.3-14.1
		C1324.7,1077.5,1330.6,1071,1338,1071z M1338,1094.8c4.9,0,8.7-4.4,8.7-9.8c0-5.3-3.8-9.6-8.7-9.6c-4.9,0-8.7,4.3-8.7,9.6
		C1329.3,1090.5,1333.1,1094.8,1338,1094.8z"/>
	<path class="st4" d="M1360.7,1075.7h-3.4c-0.7,0-1.3-0.6-1.3-1.3v-1.5c0-0.7,0.5-1.3,1.3-1.3h3.4v-7.4c0-0.7,0.6-1.3,1.3-1.3
		l2.1-0.1c0.7,0,1.2,0.6,1.2,1.3v7.6h7.8c0.7,0,1.3,0.5,1.3,1.3v1.5c0,0.7-0.5,1.3-1.3,1.3h-7.8v15.7c0,2.7,0.7,3.2,2.2,3.2
		c1.7,0,4-1,4.9-1.5c1-0.5,1.3-0.1,1.6,0.4l1,1.7c0.5,0.8,0.3,1.2-0.5,1.7c-0.9,0.6-4.6,2.3-7.7,2.3c-5.4,0-6.2-3.2-6.2-7.4V1075.7z
		"/>
	<path class="st4" d="M1393.2,1071c7.4,0,13.3,6.4,13.3,14c0,7.7-5.9,14.1-13.3,14.1c-7.4,0-13.3-6.4-13.3-14.1
		C1379.9,1077.5,1385.8,1071,1393.2,1071z M1393.2,1094.8c4.9,0,8.7-4.4,8.7-9.8c0-5.3-3.8-9.6-8.7-9.6c-4.9,0-8.7,4.3-8.7,9.6
		C1384.5,1090.5,1388.3,1094.8,1393.2,1094.8z"/>
	<path class="st4" d="M1414.1,1073c0-0.7,0.6-1.3,1.3-1.3h1.3c0.5,0,1,0.3,1.1,0.9l0.5,1.9c0,0,2.5-3.6,8-3.6c2,0,5.4,0.3,4.7,2.2
		l-0.8,2.3c-0.3,0.9-0.9,0.9-1.6,0.6c-0.6-0.3-1.6-0.5-2.6-0.5c-5.1,0-7.3,3.8-7.3,3.8v17.9c0,0.7-0.6,1.3-1.3,1.3h-2.1
		c-0.7,0-1.3-0.6-1.3-1.3V1073z"/>
	<path class="st4" d="M1435.6,1056.2c0-1.8,1.4-3.2,3.1-3.2c1.8,0,3.2,1.4,3.2,3.2c0,1.7-1.4,3.1-3.2,3.1
		C1437,1059.3,1435.6,1057.9,1435.6,1056.2z M1436.5,1073c0-0.7,0.6-1.3,1.3-1.3h2.1c0.7,0,1.3,0.6,1.3,1.3v24.3
		c0,0.7-0.6,1.3-1.3,1.3h-2.1c-0.7,0-1.3-0.6-1.3-1.3V1073z"/>
	<path class="st4" d="M1450.7,1073c0-0.7,0.6-1.3,1.3-1.3h1.3c0.6,0,0.9,0.3,1.1,0.8l0.6,2.1c0,0,3.8-3.6,9.4-3.6
		c7.8,0,10.4,5.1,10.4,12.1v14.1c0,0.7-0.6,1.3-1.3,1.3h-2.1c-0.7,0-1.3-0.6-1.3-1.3v-14.1c0-5.1-2.3-7.6-6-7.6
		c-5,0-8.6,3.8-8.6,3.8v17.9c0,0.7-0.6,1.3-1.3,1.3h-2.1c-0.7,0-1.3-0.6-1.3-1.3V1073z"/>
	<path class="st4" d="M1495.2,1071c7.4,0,13.3,6.4,13.3,14c0,7.7-5.9,14.1-13.3,14.1c-7.4,0-13.3-6.4-13.3-14.1
		C1481.9,1077.5,1487.8,1071,1495.2,1071z M1495.2,1094.8c4.9,0,8.7-4.4,8.7-9.8c0-5.3-3.8-9.6-8.7-9.6c-4.9,0-8.7,4.3-8.7,9.6
		C1486.5,1090.5,1490.3,1094.8,1495.2,1094.8z"/>
	<path class="st4" d="M1516.2,1052.9c0-0.7,0.6-1.3,1.3-1.3h2.1c0.7,0,1.3,0.6,1.3,1.3v44.4c0,0.7-0.6,1.3-1.3,1.3h-2.1
		c-0.7,0-1.3-0.6-1.3-1.3V1052.9z"/>
	<path class="st4" d="M1539.2,1081.5c2.9,0,5.7,0.9,5.7,0.9c0.1-5-0.5-7.2-4.4-7.2c-3.7,0-6.8,1-8,1.5c-0.7,0.3-1.1-0.1-1.3-0.7
		l-0.5-1.7c-0.3-0.8,0.1-1.2,0.7-1.5c0.4-0.2,4.3-1.7,9.3-1.7c6.8,0,8.5,3.5,8.5,11.3v14.9c0,0.7-0.6,1.3-1.3,1.3h-1.3
		c-0.7,0-0.9-0.4-1.1-1l-0.5-1.8c-1.4,1.4-4.2,3.5-8.3,3.5c-4.7,0-8.2-3.4-8.2-8.8C1528.4,1085.3,1532.3,1081.5,1539.2,1081.5z
		 M1537.4,1095.2c3.4,0,6.2-2.1,7.4-3.8v-5.3c-0.8-0.5-2.7-1.1-5.6-1.1c-3.8,0-6.4,1.9-6.4,5.4
		C1532.7,1093.1,1534.5,1095.2,1537.4,1095.2z"/>
	<path class="st4" d="M1558.5,1073c0-0.7,0.6-1.3,1.3-1.3h1.3c0.5,0,1,0.3,1.1,0.9l0.5,1.9c0,0,2.5-3.6,8-3.6c2,0,5.4,0.3,4.7,2.2
		l-0.8,2.3c-0.3,0.9-0.9,0.9-1.6,0.6c-0.6-0.3-1.6-0.5-2.6-0.5c-5.1,0-7.3,3.8-7.3,3.8v17.9c0,0.7-0.6,1.3-1.3,1.3h-2.1
		c-0.7,0-1.3-0.6-1.3-1.3V1073z"/>
	<path class="st4" d="M1580,1056.2c0-1.8,1.4-3.2,3.1-3.2c1.8,0,3.2,1.4,3.2,3.2c0,1.7-1.4,3.1-3.2,3.1
		C1581.4,1059.3,1580,1057.9,1580,1056.2z M1580.9,1073c0-0.7,0.6-1.3,1.3-1.3h2.1c0.7,0,1.3,0.6,1.3,1.3v24.3
		c0,0.7-0.6,1.3-1.3,1.3h-2.1c-0.7,0-1.3-0.6-1.3-1.3V1073z"/>
	<path class="st4" d="M1595,1073c0-0.7,0.6-1.3,1.3-1.3h1.3c0.6,0,0.9,0.3,1.1,0.8l0.6,2.1c0,0,3.8-3.6,9.4-3.6
		c7.8,0,10.4,5.1,10.4,12.1v14.1c0,0.7-0.6,1.3-1.3,1.3h-2.1c-0.7,0-1.3-0.6-1.3-1.3v-14.1c0-5.1-2.3-7.6-6-7.6
		c-5,0-8.6,3.8-8.6,3.8v17.9c0,0.7-0.6,1.3-1.3,1.3h-2.1c-0.7,0-1.3-0.6-1.3-1.3V1073z"/>
	<path class="st4" d="M1630,1089.5c0,0-2.1-2.7-2.1-6.7c0-6.2,4.4-11.8,11.3-11.8h11.3c0.7,0,1.3,0.5,1.3,1.3v1.1
		c0,0.5-0.3,1.1-0.7,1.1l-3.6,0.7c0,0,3,2.2,3,7.5c0,6.1-4.4,11.4-11.3,11.4c-4.3,0-6.4-1.7-6.4-1.7s-2.9,1.3-2.9,4
		c0,1.7,1.2,3.3,3.7,3.3h9.6c5.6,0,10,2.7,10,8.6c0,5.6-5.8,10.9-13.9,10.9c-9,0-12.9-4.8-12.9-9.2c0-4,3.2-5.8,3.9-6.2v-0.2
		c-1.7-0.5-4.9-2.2-4.9-6.4C1625.5,1092.1,1630,1089.5,1630,1089.5z M1639.3,1114.9c4.4,0,9-2.5,9-6.4c0-0.9-0.4-4.4-5.1-4.4
		c-2.5,0-5,0-7.4,0c0,0-4.5,1.2-4.5,5.2C1631.3,1112.6,1634.8,1114.9,1639.3,1114.9z M1646,1082.7c0-4.4-2.7-7.5-6.7-7.5
		c-4.1,0-7,3.1-7,7.5s2.9,7.5,7,7.5C1643.3,1090.2,1646,1087.1,1646,1082.7z"/>
	<path class="st4" d="M1670.3,1071c7.4,0,13.3,6.4,13.3,14c0,7.7-5.9,14.1-13.3,14.1s-13.3-6.4-13.3-14.1
		C1657,1077.5,1662.9,1071,1670.3,1071z M1670.3,1094.8c4.9,0,8.7-4.4,8.7-9.8c0-5.3-3.8-9.6-8.7-9.6c-4.9,0-8.7,4.3-8.7,9.6
		C1661.6,1090.5,1665.5,1094.8,1670.3,1094.8z"/>
	<path class="st4" d="M1691.3,1052.9c0-0.7,0.6-1.3,1.3-1.3h2.1c0.7,0,1.3,0.6,1.3,1.3v44.4c0,0.7-0.6,1.3-1.3,1.3h-2.1
		c-0.7,0-1.3-0.6-1.3-1.3V1052.9z"/>
	<path class="st4" d="M1716.9,1071c7.4,0,13.3,6.4,13.3,14c0,7.7-5.9,14.1-13.3,14.1s-13.3-6.4-13.3-14.1
		C1703.6,1077.5,1709.5,1071,1716.9,1071z M1716.9,1094.8c4.9,0,8.7-4.4,8.7-9.8c0-5.3-3.8-9.6-8.7-9.6c-4.9,0-8.7,4.3-8.7,9.6
		C1708.2,1090.5,1712,1094.8,1716.9,1094.8z"/>
	<path class="st4" d="M1739.6,1089.5c0,0-2.1-2.7-2.1-6.7c0-6.2,4.4-11.8,11.3-11.8h11.3c0.7,0,1.3,0.5,1.3,1.3v1.1
		c0,0.5-0.3,1.1-0.7,1.1l-3.6,0.7c0,0,3,2.2,3,7.5c0,6.1-4.4,11.4-11.3,11.4c-4.3,0-6.4-1.7-6.4-1.7s-2.9,1.3-2.9,4
		c0,1.7,1.2,3.3,3.7,3.3h9.6c5.6,0,10,2.7,10,8.6c0,5.6-5.8,10.9-13.9,10.9c-9,0-12.9-4.8-12.9-9.2c0-4,3.2-5.8,3.9-6.2v-0.2
		c-1.7-0.5-4.9-2.2-4.9-6.4C1735.1,1092.1,1739.6,1089.5,1739.6,1089.5z M1748.9,1114.9c4.4,0,9-2.5,9-6.4c0-0.9-0.4-4.4-5.1-4.4
		c-2.5,0-5,0-7.4,0c0,0-4.5,1.2-4.5,5.2C1740.9,1112.6,1744.4,1114.9,1748.9,1114.9z M1755.6,1082.7c0-4.4-2.7-7.5-6.7-7.5
		c-4.1,0-7,3.1-7,7.5s2.9,7.5,7,7.5C1752.9,1090.2,1755.6,1087.1,1755.6,1082.7z"/>
</g>
</svg>
